<svg id="visual" viewBox="0 0 960 540" width="960" height="540" xmlns="http://www.w3.org/2000/svg" xmlns:xlink="http://www.w3.org/1999/xlink" version="1.1"><rect x="0" y="0" width="960" height="540" fill="#ffffff"></rect><defs><linearGradient id="grad1_0" x1="43.8%" y1="0%" x2="100%" y2="100%"><stop offset="14.444444444444446%" stop-color="#319795" stop-opacity="1"></stop><stop offset="85.55555555555554%" stop-color="#319795" stop-opacity="1"></stop></linearGradient></defs><defs><linearGradient id="grad1_1" x1="43.8%" y1="0%" x2="100%" y2="100%"><stop offset="14.444444444444446%" stop-color="#319795" stop-opacity="1"></stop><stop offset="85.55555555555554%" stop-color="#9fcbc9" stop-opacity="1"></stop></linearGradient></defs><defs><linearGradient id="grad1_2" x1="43.8%" y1="0%" x2="100%" y2="100%"><stop offset="14.444444444444446%" stop-color="#ffffff" stop-opacity="1"></stop><stop offset="85.55555555555554%" stop-color="#9fcbc9" stop-opacity="1"></stop></linearGradient></defs><defs><linearGradient id="grad2_0" x1="0%" y1="0%" x2="56.3%" y2="100%"><stop offset="14.444444444444446%" stop-color="#319795" stop-opacity="1"></stop><stop offset="85.55555555555554%" stop-color="#319795" stop-opacity="1"></stop></linearGradient></defs><defs><linearGradient id="grad2_1" x1="0%" y1="0%" x2="56.3%" y2="100%"><stop offset="14.444444444444446%" stop-color="#9fcbc9" stop-opacity="1"></stop><stop offset="85.55555555555554%" stop-color="#319795" stop-opacity="1"></stop></linearGradient></defs><defs><linearGradient id="grad2_2" x1="0%" y1="0%" x2="56.3%" y2="100%"><stop offset="14.444444444444446%" stop-color="#9fcbc9" stop-opacity="1"></stop><stop offset="85.55555555555554%" stop-color="#ffffff" stop-opacity="1"></stop></linearGradient></defs><g transform="translate(960, 0)"><path d="M0 297C-24.3 241.9 -48.6 186.7 -97.5 168.9C-146.4 151 -219.9 170.4 -257.2 148.5C-294.6 126.6 -295.8 63.3 -297 0L0 0Z" fill="#cfe5e4"></path><path d="M0 198C-16.2 161.2 -32.4 124.5 -65 112.6C-97.6 100.7 -146.6 113.6 -171.5 99C-196.4 84.4 -197.2 42.2 -198 0L0 0Z" fill="#6eb1ae"></path><path d="M0 99C-8.1 80.6 -16.2 62.2 -32.5 56.3C-48.8 50.3 -73.3 56.8 -85.7 49.5C-98.2 42.2 -98.6 21.1 -99 0L0 0Z" fill="#319795"></path></g><g transform="translate(0, 540)"><path d="M0 -297C25.4 -243.7 50.7 -190.4 99.5 -172.3C148.3 -154.2 220.4 -171.4 257.2 -148.5C294 -125.6 295.5 -62.8 297 0L0 0Z" fill="#cfe5e4"></path><path d="M0 -198C16.9 -162.5 33.8 -127 66.3 -114.9C98.8 -102.8 146.9 -114.2 171.5 -99C196 -83.8 197 -41.9 198 0L0 0Z" fill="#6eb1ae"></path><path d="M0 -99C8.5 -81.2 16.9 -63.5 33.2 -57.4C49.4 -51.4 73.5 -57.1 85.7 -49.5C98 -41.9 98.5 -20.9 99 0L0 0Z" fill="#319795"></path></g></svg>