<svg id="visual" viewBox="0 0 900 900" width="900" height="900" xmlns="http://www.w3.org/2000/svg" xmlns:xlink="http://www.w3.org/1999/xlink" version="1.1"><rect width="900" height="900" fill="#ffffff"></rect><g><g transform="translate(655 165)"><path d="M0 -52.6L45.6 -26.3L45.6 26.3L0 52.6L-45.6 26.3L-45.6 -26.3Z" fill="#319795"></path></g><g transform="translate(227 592)"><path d="M0 -47L40.7 -23.5L40.7 23.5L0 47L-40.7 23.5L-40.7 -23.5Z" fill="#319795"></path></g><g transform="translate(114 619)"><path d="M0 -20L17.3 -10L17.3 10L0 20L-17.3 10L-17.3 -10Z" fill="#319795"></path></g><g transform="translate(383 54)"><path d="M0 -32L27.7 -16L27.7 16L0 32L-27.7 16L-27.7 -16Z" fill="#319795"></path></g><g transform="translate(371 591)"><path d="M0 -50L43.3 -25L43.3 25L0 50L-43.3 25L-43.3 -25Z" fill="#319795"></path></g><g transform="translate(863 637)"><path d="M0 -40L34.6 -20L34.6 20L0 40L-34.6 20L-34.6 -20Z" fill="#319795"></path></g><g transform="translate(236 382)"><path d="M0 -12L10.4 -6L10.4 6L0 12L-10.4 6L-10.4 -6Z" fill="#319795"></path></g><g transform="translate(559 38)"><path d="M0 -20L17.3 -10L17.3 10L0 20L-17.3 10L-17.3 -10Z" fill="#319795"></path></g><g transform="translate(667 737)"><path d="M0 -24L20.8 -12L20.8 12L0 24L-20.8 12L-20.8 -12Z" fill="#319795"></path></g><g transform="translate(70 369)"><path d="M0 -50L43.3 -25L43.3 25L0 50L-43.3 25L-43.3 -25Z" fill="#319795"></path></g><g transform="translate(680 294)"><path d="M0 -30L26 -15L26 15L0 30L-26 15L-26 -15Z" fill="#319795"></path></g><g transform="translate(779 46)"><path d="M0 -26L22.5 -13L22.5 13L0 26L-22.5 13L-22.5 -13Z" fill="#319795"></path></g><g transform="translate(344 208)"><path d="M0 -44L38.1 -22L38.1 22L0 44L-38.1 22L-38.1 -22Z" fill="#319795"></path></g><g transform="translate(334 744)"><path d="M0 -50L43.3 -25L43.3 25L0 50L-43.3 25L-43.3 -25Z" fill="#319795"></path></g><g transform="translate(80 92)"><path d="M0 -19L16.5 -9.5L16.5 9.5L0 19L-16.5 9.5L-16.5 -9.5Z" fill="#319795"></path></g></g></svg>